<svg width="25" height="27" viewBox="0 0 25 27" fill="none" xmlns="http://www.w3.org/2000/svg">
<path d="M10.5752 0.975032C11.6871 0.0374546 13.3128 0.0374546 14.4246 0.975045L23.3814 8.52802C24.054 9.09531 24.4422 9.93045 24.4422 10.8104V23.8179C24.4422 25.1004 23.4026 26.14 22.1201 26.14H17.4759C16.1934 26.14 15.1538 25.1004 15.1538 23.8179V16.5198C15.1538 16.3367 15.0053 16.1881 14.822 16.1881H10.1778C9.99456 16.1881 9.84607 16.3367 9.84607 16.5198V23.8179C9.84607 25.1004 8.80643 26.14 7.52396 26.14H2.87973C1.59726 26.14 0.557617 25.1004 0.557617 23.8179V10.8104C0.557617 9.93045 0.945809 9.09531 1.61852 8.52802L10.5752 0.975032ZM13.1415 2.49663C12.7709 2.1841 12.229 2.1841 11.8584 2.49663L2.90164 10.0496C2.6774 10.2387 2.548 10.5171 2.548 10.8104V23.8179C2.548 24.0011 2.69652 24.1496 2.87973 24.1496H7.52396C7.70717 24.1496 7.85568 24.0011 7.85568 23.8179V16.5198C7.85568 15.2373 8.89534 14.1977 10.1778 14.1977H14.822C16.1045 14.1977 17.1442 15.2373 17.1442 16.5198V23.8179C17.1442 24.0011 17.2926 24.1496 17.4759 24.1496H22.1201C22.3034 24.1496 22.4518 24.0011 22.4518 23.8179V10.8104C22.4518 10.5171 22.3225 10.2387 22.0982 10.0496L13.1415 2.49663Z" fill="#5753B6"/>
</svg>
