<svg width="71" height="35" viewBox="0 0 71 35" fill="none" xmlns="http://www.w3.org/2000/svg">
<g clip-path="url(#clip0_114_3291)">
<path d="M11.4566 0.702695C11.4452 0.435009 11.32 0.187399 11.1067 0.0702859C10.7937 -0.10371 10.4153 0.0669398 10.2617 0.448393C10.2276 0.532045 10.2105 0.615697 10.202 0.702695H10.1963V2.03109H11.4594V0.702695H11.4537H11.4566Z" fill="#5454A0"/>
<path d="M10.1877 34.2974C10.199 34.5651 10.3242 34.8127 10.5376 34.9298C10.8505 35.1038 11.2289 34.9331 11.3825 34.5517C11.4167 34.468 11.4337 34.3844 11.4423 34.2974H11.4479V32.969H10.1848V34.2974H10.1905H10.1877Z" fill="#5454A0"/>
<path d="M11.4023 33.7619C8.73951 33.7619 6.38394 33.1228 4.33562 31.8446C2.28729 30.5698 0.842088 28.7361 0 26.347L2.25885 24.5535C2.89041 26.6147 4.01983 28.2108 5.64711 29.3418C7.27724 30.4761 9.26297 31.0416 11.61 31.0416C13.957 31.0416 15.7351 30.5062 17.0466 29.4354C18.3609 28.3647 19.0153 26.9426 19.0153 25.1725C19.0153 23.978 18.6909 22.9374 18.0423 22.054C17.3937 21.1673 16.1761 20.4981 14.3923 20.0463L8.2445 18.5005C5.72108 17.8814 3.92595 16.8843 2.85912 15.5024C1.78944 14.1238 1.25744 12.444 1.25744 10.4665C1.25744 8.82024 1.67849 7.33458 2.51773 6.01623C3.35982 4.69787 4.52338 3.63716 6.01126 2.83411C7.49914 2.03105 9.24306 1.62952 11.2402 1.62952C13.866 1.62952 16.0395 2.2385 17.755 3.45313C19.4704 4.66776 20.6795 6.49137 21.3794 8.92063L19.1717 10.5903C18.6454 8.40867 17.6753 6.81929 16.2557 5.83219C14.8361 4.8451 13.1633 4.34988 11.2373 4.34988C9.76652 4.34988 8.47778 4.60753 7.37681 5.12282C6.27299 5.63812 5.41383 6.33745 4.80218 7.22416C4.18768 8.11087 3.88328 9.13143 3.88328 10.2825C3.88328 11.4335 4.2332 12.5578 4.93304 13.5282C5.63289 14.4952 6.87611 15.2079 8.6627 15.6596L14.967 17.2657C17.4534 17.8848 19.186 18.8217 20.1674 20.0765C21.1489 21.3346 21.6383 22.8872 21.6383 24.7442C21.6383 26.6013 21.2172 28.2041 20.378 29.5626C19.5387 30.9211 18.3467 31.9651 16.8048 32.6845C15.2629 33.4039 13.4592 33.7653 11.3938 33.7653L11.4023 33.7619Z" fill="#5454A0"/>
<path d="M50.4116 1.49566C51.1683 1.49566 51.8397 1.59938 52.4286 1.80349C53.0175 2.00761 53.4784 2.30206 53.8141 2.68351L53.2252 4.4469C52.861 4.09556 52.4685 3.8446 52.0503 3.69738C51.6292 3.55015 51.1399 3.47654 50.5794 3.47654C49.2082 3.47654 48.1442 3.8881 47.3875 4.71124C46.6307 5.53437 46.2524 6.75569 46.2524 8.37185V33.8924H44.1528V8.15101C44.1528 7.15388 44.2865 6.2404 44.5511 5.41726C44.8157 4.59413 45.2168 3.89814 45.7488 3.32262C46.2808 2.75044 46.938 2.30206 47.7232 1.97749C48.5084 1.65292 49.4045 1.49231 50.4116 1.49231V1.49566Z" fill="#5454A0"/>
<path d="M54.4599 20.6286C54.4457 20.9498 54.4371 21.2777 54.4371 21.6123C54.4371 23.8207 54.7672 25.7313 55.4243 27.3441C56.0815 28.957 57.0061 30.185 58.1952 31.0248C59.3844 31.8647 60.7642 32.2863 62.3346 32.2863C63.9049 32.2863 65.353 31.8747 66.5137 31.0516C67.6744 30.2285 68.5791 29.0908 69.2221 27.6419L70.9034 28.7796C70.3998 29.9641 69.7284 30.978 68.8864 31.8179C68.0443 32.6577 67.0798 33.3069 65.9874 33.7686C64.895 34.2304 63.6916 34.4613 62.3744 34.4613C60.4427 34.4613 58.7187 33.9493 57.2081 32.9288C55.6974 31.9082 54.5111 30.4326 53.6576 28.5052C52.8042 26.5779 52.3774 24.2825 52.3774 21.6123C52.3774 21.281 52.3831 20.9565 52.3974 20.6353M52.3974 18.6209C52.4912 16.3657 52.9094 14.3915 53.6576 12.705C54.5111 10.7777 55.6661 9.30543 57.1227 8.28153C58.5793 7.26097 60.2436 6.74902 62.1212 6.74902C63.9988 6.74902 65.6489 7.24424 66.9945 8.23134C67.4412 8.55925 67.8537 8.93067 68.2349 9.34558C68.5791 9.72034 69.5065 10.587 70.104 12.3571C71.222 15.6697 70.9005 17.0851 70.9973 18.6376C70.9973 18.651 70.9802 18.6376 70.7384 18.6376C70.5819 18.6376 70.4852 18.6376 70.3799 18.6376C70.0585 18.6376 69.9731 18.6376 69.3415 18.6376C69.2164 18.6376 69.1196 18.6376 69.0627 18.6376C69.0969 17.5067 69.0969 13.9331 67.2249 11.4469C66.6673 10.7074 66.0813 10.2423 65.9846 10.1687C64.9149 9.34224 63.6119 8.92732 62.0785 8.92732C60.5451 8.92732 59.2365 9.34893 58.0871 10.1888C56.9378 11.0287 56.0417 12.2466 55.3987 13.8461C54.6021 15.8202 54.4485 17.6104 54.4542 18.6176" fill="#5454A0"/>
<path d="M71 19.3303C68.6273 19.3303 40.8498 19.3203 39.268 19.3136C39.3591 17.2624 39.4103 15.5325 38.8299 13.6888C38.517 12.6917 38.1358 11.4871 37.1713 10.3729C34.7247 7.54543 30.9723 8.11761 29.9112 8.27822C27.9482 8.57602 26.6452 9.41923 26.2185 9.71369C23.8572 11.3399 23.0863 14.0569 22.9981 14.3279C22.9924 14.3413 23.0607 14.3748 23.1631 14.4517C23.2655 14.5254 23.2655 14.5254 23.3565 14.5956C23.5073 14.7094 23.5244 14.7161 24.2214 15.2414C24.7221 15.6162 24.7221 15.6162 24.7221 15.6162C25.5357 13.12 26.0137 12.4341 28.062 11.1224C29.217 10.3829 30.4233 10.3528 31.3393 10.3796C32.1928 10.403 33.6124 10.4431 34.9239 11.5841C35.8371 12.3772 36.3918 13.4412 36.6422 14.0937C36.7531 14.3781 36.8271 14.6458 36.8356 14.6759C36.9523 15.0975 37.0547 15.6998 37.0661 16.7003C37.0775 17.6205 37.0945 18.457 37.1088 19.3102C35.9054 19.3102 35.0747 19.2969 34.5199 19.2868C34.3265 19.2835 33.9822 19.2768 33.5157 19.2868C33.5157 19.2868 32.83 19.3002 32.1956 19.3471C25.6495 19.8423 23.6723 23.533 23.6723 23.533C23.2968 24.2323 22.5685 25.9054 22.8758 28.7295C23.1546 30.2887 23.8459 31.2892 23.9853 31.4866C25.3053 33.327 27.3678 33.7887 28.8017 33.9025C31.1715 34.0865 34.0733 33.153 35.9623 31.1621C36.5455 30.5464 36.9864 29.7232 36.9807 29.489C36.9779 29.3585 36.9807 29.4388 37.0035 29.6429C37.1628 31.0717 37.6493 32.0053 37.6493 32.0053C37.8513 32.3232 38.1813 32.7648 38.6763 33.1329C40.2268 34.2906 42.5254 34.1133 42.6961 33.4441C42.7047 33.4106 42.7047 33.3872 42.7047 33.3537C42.7047 32.36 42.6933 31.3059 42.6734 31.316C42.3917 31.4565 41.5468 31.8413 40.6876 31.6272C39.1941 31.2591 39.2026 29.74 39.1969 29.5492C39.1742 28.6558 39.1855 27.9532 39.1827 27.3475C39.177 25.9924 39.177 24.7075 39.177 22.5459C39.177 22.3451 39.1827 22.1645 39.1855 21.9704C40.1983 21.9704 58.0045 21.8232 70.9801 21.8733H70.9886C71.0085 18.6444 71.0085 21.0201 71.0085 19.3337L71 19.3303ZM35.0775 29.5861C34.8613 29.827 34.409 30.2988 33.7632 30.7237C31.5868 32.1625 28.2498 32.4235 26.2128 30.456C25.8657 30.1214 25.1801 29.4355 24.9554 28.3045C24.6794 26.9058 25.274 25.6912 25.4134 25.4135C26.8757 22.4388 31.0321 22.1076 33.729 21.8901C34.9893 21.7897 36.0391 21.8265 36.7503 21.8767C36.8783 21.8867 37.0007 21.8934 37.1201 21.9001C37.1144 22.9575 37.0888 24.1453 37.0348 25.5942C36.9978 26.5344 36.352 28.1774 35.0803 29.5894L35.0775 29.5861Z" fill="#5454A0"/>
<path d="M63.5036 14.7729C63.5036 14.0066 62.9744 13.3843 62.323 13.3843C61.6715 13.3843 61.1423 14.0066 61.1423 14.7729C61.1423 15.2045 61.313 15.586 61.5776 15.8403V17.694H63.0683V15.8403C63.3329 15.586 63.5036 15.2045 63.5036 14.7729Z" fill="#5454A0"/>
</g>
<defs>
<clipPath id="clip0_114_3291">
<rect width="71" height="35" fill="white"/>
</clipPath>
</defs>
</svg>
