<svg width="33" height="28" viewBox="0 0 33 28" fill="none" xmlns="http://www.w3.org/2000/svg">
<path d="M5.77471 6.58824C5.77471 4.31412 7.62145 2.47059 9.89951 2.47059C12.1776 2.47059 14.0243 4.31412 14.0243 6.58824C14.0243 8.86235 12.1776 10.7059 9.89951 10.7059C7.62145 10.7059 5.77471 8.86235 5.77471 6.58824ZM9.89951 0C6.25461 0 3.29984 2.94965 3.29984 6.58824C3.29984 10.2268 6.25461 13.1765 9.89951 13.1765C13.5443 13.1765 16.4992 10.2268 16.4992 6.58824C16.4992 2.94965 13.5443 0 9.89951 0ZM22.2739 8.23529C22.2739 6.87082 23.382 5.76471 24.7488 5.76471C26.1156 5.76471 27.2236 6.87082 27.2236 8.23529C27.2236 9.59977 26.1156 10.7059 24.7488 10.7059C23.382 10.7059 22.2739 9.59977 22.2739 8.23529ZM24.7488 3.29412C22.015 3.29412 19.799 5.50636 19.799 8.23529C19.799 10.9643 22.015 13.1765 24.7488 13.1765C27.4825 13.1765 29.6985 10.9643 29.6985 8.23529C29.6985 5.50636 27.4825 3.29412 24.7488 3.29412ZM20.2089 24.768C21.3676 25.2382 22.8542 25.5294 24.7504 25.5294C28.516 25.5294 30.6665 24.3809 31.8399 22.9635C32.4093 22.2755 32.6991 21.5809 32.8461 21.0486C32.9193 20.7828 32.9578 20.5553 32.9777 20.3856C32.9878 20.3007 32.9934 20.2293 32.9964 20.1743C32.9979 20.1468 32.9988 20.1233 32.9993 20.1038L32.9998 20.0781L33 20.0676V20.063V20.0589C33 18.0771 31.3907 16.4706 29.4055 16.4706H20.0953C20.05 16.4706 20.0049 16.4714 19.9602 16.4731C20.6101 17.1502 21.0838 17.9974 21.307 18.9412H29.4055C30.0186 18.9412 30.5165 19.433 30.525 20.0429C30.5245 20.0523 30.523 20.0702 30.52 20.0959C30.5126 20.1579 30.4963 20.2613 30.46 20.3926C30.3877 20.6544 30.2392 21.0186 29.9321 21.3895C29.3525 22.0897 27.997 23.0588 24.7504 23.0588C23.1333 23.0588 21.9855 22.8184 21.1688 22.4906C20.9921 23.1496 20.6985 23.9446 20.2089 24.768ZM3.71231 16.4706C1.66206 16.4706 0 18.1298 0 20.1765V20.59V20.5919L1.65216e-05 20.5961L0.000115651 20.6065L0.000577469 20.6339C0.00105594 20.6551 0.00193039 20.6823 0.00346481 20.7152C0.00653366 20.7808 0.0122917 20.8691 0.0230657 20.9766C0.0445641 21.1912 0.0863402 21.4859 0.167714 21.8341C0.329901 22.5278 0.654258 23.4548 1.30645 24.3849C2.65746 26.3116 5.23318 28 9.89951 28C14.5658 28 17.1415 26.3116 18.4926 24.3849C19.1448 23.4548 19.4692 22.5278 19.6312 21.8341C19.7127 21.4859 19.7545 21.1912 19.7759 20.9766C19.7868 20.8691 19.7924 20.7808 19.7955 20.7152C19.797 20.6823 19.798 20.6551 19.7984 20.6339L19.7988 20.6065L19.799 20.5961V20.5919V20.1765C19.799 18.1298 18.1369 16.4706 16.0867 16.4706H3.71231ZM2.47565 20.6001L2.47488 20.5795V20.1765C2.47488 19.4943 3.0289 18.9412 3.71231 18.9412H16.0867C16.7701 18.9412 17.3241 19.4943 17.3241 20.1765V20.5793L17.3233 20.6001C17.3222 20.6248 17.3195 20.6694 17.3134 20.7307C17.301 20.8537 17.2751 21.0417 17.2212 21.2726C17.1126 21.7369 16.8957 22.354 16.465 22.9681C15.6506 24.1296 13.8953 25.5294 9.89951 25.5294C5.90377 25.5294 4.14845 24.1296 3.33394 22.9681C2.90338 22.354 2.68636 21.7369 2.57785 21.2726C2.52388 21.0417 2.49798 20.8537 2.48565 20.7307C2.47951 20.6694 2.47681 20.6248 2.47565 20.6001Z" fill="#5753B6"/>
</svg>
